<?xml version="1.0" standalone="no"?>
<!DOCTYPE svg PUBLIC "-//W3C//DTD SVG 20010904//EN"
 "http://www.w3.org/TR/2001/REC-SVG-20010904/DTD/svg10.dtd">
<svg version="1.0" xmlns="http://www.w3.org/2000/svg"
 width="425.000000pt" height="587.000000pt" viewBox="0 0 425.000000 587.000000"
 preserveAspectRatio="xMidYMid meet">

<g transform="translate(0.000000,587.000000) scale(0.100000,-0.100000)"
fill="#000000" stroke="none">
<path d="M437 5813 c9 -111 26 -242 38 -299 17 -81 79 -224 129 -299 45 -66
197 -221 441 -450 88 -82 181 -169 206 -193 l47 -44 -6 182 c-3 120 -1 210 8
266 l12 83 -135 145 c-74 79 -195 213 -267 296 -137 156 -175 188 -330 275
-47 26 -99 56 -116 66 l-32 19 5 -47z"/>
<path d="M3760 5751 c-204 -117 -194 -110 -368 -307 -76 -88 -194 -217 -260
-289 l-122 -130 8 -55 c4 -30 7 -148 7 -262 0 -115 1 -208 4 -208 6 0 317 294
481 455 158 156 241 260 277 350 60 152 74 216 88 400 4 44 9 88 11 98 3 9 2
17 -3 16 -4 -1 -60 -31 -123 -68z m86 -68 c-19 -218 -74 -373 -186 -521 -54
-72 -395 -406 -571 -560 l-25 -22 -1 167 c-1 93 -5 189 -11 216 l-9 47 76 83
c42 45 89 96 104 112 16 17 81 91 145 165 183 211 233 257 357 327 61 35 114
63 119 63 5 0 6 -34 2 -77z"/>
<path d="M160 5210 c0 -48 52 -176 157 -388 l115 -232 106 -88 c227 -187 650
-507 659 -498 2 2 -3 34 -12 72 -26 111 -53 295 -61 404 l-7 100 -61 58 c-295
275 -574 472 -786 555 -94 36 -110 39 -110 17z"/>
<path d="M4085 5171 c-222 -79 -511 -280 -817 -567 -62 -58 -68 -67 -68 -104
0 -77 -21 -235 -51 -384 -17 -81 -29 -150 -26 -152 5 -6 462 340 615 466 148
123 141 113 250 320 67 128 160 351 169 405 7 41 2 42 -72 16z m-10 -157 c-26
-60 -85 -184 -132 -277 l-86 -167 -100 -82 c-234 -191 -576 -452 -584 -444 -2
1 3 35 12 74 20 99 45 292 45 357 l0 53 150 133 c257 228 440 356 635 444 73
33 101 41 103 31 2 -7 -18 -62 -43 -122z"/>
<path d="M1334 4953 c-4 -32 -4 -148 -1 -257 l5 -200 79 -76 c43 -41 173 -166
290 -278 l211 -202 114 120 c62 66 113 125 113 130 0 6 -135 149 -300 318
-165 169 -343 351 -394 405 -52 53 -98 97 -102 97 -4 0 -11 -26 -15 -57z"/>
<path d="M2880 4888 c-47 -50 -198 -207 -336 -347 l-251 -256 -6 -135 c-4 -74
-14 -189 -22 -255 -8 -66 -15 -127 -15 -135 0 -8 105 89 233 216 127 127 290
285 361 351 l130 121 7 69 c16 136 8 463 -10 463 -3 0 -44 -42 -91 -92z m79
-128 c0 -69 -4 -163 -8 -209 l-8 -84 -75 -71 c-40 -39 -185 -178 -320 -308
-136 -131 -248 -238 -251 -238 -2 0 0 28 5 63 5 34 12 128 16 208 l7 146 310
320 c187 193 313 315 317 309 4 -6 7 -67 7 -136z"/>
<path d="M100 4530 c0 -5 31 -72 70 -148 66 -131 179 -314 232 -374 51 -58
738 -518 773 -518 3 0 -12 35 -34 78 -86 171 -130 316 -131 427 l-1 60 -161
125 c-261 202 -338 251 -453 287 -80 25 -271 73 -291 73 -2 0 -4 -4 -4 -10z"/>
<path d="M1165 4449 c8 -99 37 -274 66 -399 l21 -89 91 -78 c51 -43 136 -118
191 -167 l99 -90 19 25 c11 13 56 66 101 117 45 52 83 97 85 102 3 7 -580 581
-647 636 l-33 28 7 -85z"/>
<path d="M4098 4480 c-142 -31 -272 -79 -346 -128 -37 -25 -151 -110 -253
-189 l-186 -144 -5 -87 c-6 -102 -43 -220 -114 -369 -27 -54 -50 -102 -52
-107 -19 -38 673 420 766 507 52 50 142 192 230 364 45 89 82 164 82 167 0 9
-26 6 -122 -14z m23 -119 c-129 -256 -200 -353 -329 -445 -132 -95 -565 -387
-568 -383 -2 2 12 39 31 83 45 106 82 235 90 322 l7 70 166 129 c243 187 294
221 374 249 77 26 244 73 266 74 7 0 -8 -40 -37 -99z"/>
<path d="M3050 4397 c-52 -51 -222 -215 -377 -366 l-283 -273 0 -124 c0 -112
-19 -292 -36 -340 -9 -23 10 -7 190 165 114 108 363 331 483 431 40 34 43 39
67 150 44 201 77 450 60 450 -5 0 -52 -42 -104 -93z m60 -84 c-6 -48 -24 -151
-41 -228 l-29 -140 -47 -40 c-117 -99 -296 -258 -436 -390 l-154 -143 8 46 c4
26 11 111 15 189 l7 141 191 189 c281 278 488 475 493 469 3 -3 0 -44 -7 -93z"/>
<path d="M2058 4047 c-186 -192 -325 -341 -365 -393 -39 -52 -70 -256 -79
-534 -4 -141 -4 -144 13 -120 154 215 322 420 552 672 27 31 32 57 56 297 16
169 19 261 8 260 -5 0 -88 -82 -185 -182z m155 46 c-2 -32 -13 -132 -24 -222
l-20 -163 -106 -117 c-118 -130 -234 -269 -343 -411 l-73 -95 7 150 c9 200 36
354 70 404 31 44 474 511 485 511 4 0 6 -26 4 -57z"/>
<path d="M1047 3973 c10 -105 52 -225 134 -391 l82 -163 86 -58 c48 -32 118
-84 156 -115 39 -31 73 -56 76 -56 3 0 9 51 13 113 3 61 12 145 19 185 l13 72
-149 128 c-129 110 -422 342 -432 342 -2 0 -1 -26 2 -57z"/>
<path d="M160 3979 c0 -5 9 -49 20 -97 48 -218 201 -445 425 -631 75 -63 262
-181 399 -252 150 -78 143 -80 93 31 -61 137 -137 421 -137 510 0 33 -27 54
-170 135 -129 73 -630 315 -630 304z"/>
<path d="M3140 3893 c-228 -176 -488 -401 -664 -577 l-76 -74 0 -94 c0 -51 -9
-142 -20 -203 -10 -60 -17 -111 -16 -112 1 -2 40 32 87 74 179 162 503 418
578 457 33 17 167 278 206 401 24 75 48 225 36 225 -4 0 -62 -43 -131 -97z
m93 -5 c-16 -86 -62 -206 -130 -340 -71 -139 -77 -148 -131 -184 -120 -78
-275 -201 -525 -414 -39 -33 -40 -33 -34 -10 4 14 13 87 19 163 l12 139 104
99 c214 205 654 577 684 579 4 0 5 -15 1 -32z"/>
<path d="M4045 3895 c-60 -29 -180 -86 -265 -127 -160 -77 -330 -171 -387
-214 -23 -17 -33 -33 -33 -52 0 -94 -80 -380 -149 -534 -17 -38 -27 -68 -24
-68 3 0 67 32 142 71 390 202 643 441 755 712 35 84 80 240 74 256 -2 5 -52
-15 -113 -44z m71 -22 c-3 -10 -15 -49 -27 -88 -75 -247 -269 -474 -569 -667
-102 -66 -259 -152 -266 -146 -2 3 4 26 15 52 37 85 88 260 106 361 9 55 19
109 21 120 2 13 37 39 95 74 85 50 604 309 622 310 5 1 6 -7 3 -16z"/>
<path d="M2207 3558 c-80 -84 -162 -174 -183 -200 -22 -25 -95 -113 -164 -195
-69 -81 -153 -184 -186 -228 l-61 -80 -6 -490 c-6 -488 -18 -697 -53 -933 -17
-119 -15 -144 9 -85 14 35 37 56 164 145 159 112 368 253 499 336 78 50 82 55
117 129 50 109 86 221 94 295 l6 63 -39 -30 c-177 -135 -397 -314 -560 -458
-220 -195 -239 -211 -218 -187 181 217 479 518 617 625 76 59 78 61 121 165
25 58 56 144 70 191 27 93 57 231 52 236 -2 2 -88 -83 -191 -189 -170 -174
-380 -408 -599 -665 -43 -51 -80 -93 -82 -93 -15 0 34 85 104 180 158 213 320
406 492 583 83 86 96 104 107 150 16 70 41 236 47 321 l6 70 -41 -40 c-105
-101 -441 -478 -620 -697 -49 -60 -89 -105 -89 -100 0 4 6 33 14 65 11 48 26
71 106 165 170 196 323 366 438 484 l113 116 24 101 c21 88 52 388 41 399 -2
2 -69 -65 -149 -149z m113 18 c0 -63 -18 -186 -40 -273 l-19 -74 -175 -187
c-95 -103 -234 -256 -307 -341 l-134 -154 -3 143 c-2 111 1 148 12 165 76 116
634 763 659 765 4 0 7 -20 7 -44z m6 -508 c-4 -29 -16 -103 -27 -164 l-21
-111 -130 -139 c-147 -156 -301 -337 -422 -496 l-81 -108 -3 141 c-2 111 1
146 12 164 23 35 269 329 360 430 132 147 308 335 313 335 3 0 3 -24 -1 -52z
m83 -415 c-24 -87 -68 -203 -102 -267 -14 -28 -55 -70 -117 -121 -108 -88
-428 -407 -510 -509 -30 -37 -56 -62 -58 -56 -3 7 -1 49 3 94 l7 82 170 200
c311 362 621 694 626 670 2 -8 -7 -50 -19 -93z m-14 -450 c-10 -56 -43 -149
-80 -228 -29 -62 -41 -76 -109 -125 -43 -30 -127 -86 -188 -123 -62 -38 -177
-114 -257 -170 -80 -57 -152 -106 -159 -111 -11 -6 -12 4 -6 56 8 73 -9 54
279 308 145 127 513 429 524 430 2 0 0 -17 -4 -37z"/>
<path d="M1000 3528 c0 -25 30 -173 49 -244 21 -78 97 -278 130 -342 15 -29
37 -49 78 -73 32 -18 117 -71 188 -117 l130 -83 3 228 2 228 -32 28 c-63 53
-304 234 -378 284 -120 80 -170 107 -170 91z"/>
<path d="M3270 3477 c-186 -111 -468 -327 -677 -517 l-61 -55 -16 -105 c-14
-86 -81 -313 -121 -403 -4 -10 46 21 111 69 136 99 383 263 526 349 l97 58 42
101 c23 55 53 133 66 171 50 144 96 356 76 354 -4 0 -24 -10 -43 -22z m4 -69
c-13 -75 -56 -223 -90 -315 -53 -141 -88 -207 -118 -221 -42 -19 -340 -211
-475 -306 -77 -54 -122 -80 -118 -69 2 10 17 59 31 108 15 50 35 134 44 188
l17 98 105 92 c136 120 196 169 300 248 100 75 292 208 302 209 4 0 5 -15 2
-32z"/>
<path d="M176 3205 c-16 -17 -11 -47 18 -103 18 -35 182 -243 260 -329 69 -76
239 -173 546 -313 177 -80 163 -82 119 18 -45 103 -83 232 -107 360 l-17 93
-265 133 c-285 143 -323 156 -468 156 -49 0 -75 -4 -86 -15z"/>
<path d="M3900 3170 c-25 -5 -164 -69 -309 -142 l-265 -133 -23 -110 c-25
-124 -76 -291 -104 -348 -47 -92 -52 -91 110 -17 273 125 482 237 521 279 64
67 214 248 249 300 59 86 86 150 71 165 -14 14 -188 18 -250 6z m224 -29 c8
-12 -56 -109 -139 -211 -183 -225 -205 -244 -445 -364 -228 -113 -314 -150
-305 -129 32 73 78 227 97 320 l22 112 141 74 c200 107 377 187 432 197 67 11
191 12 197 1z"/>
<path d="M1046 2868 c25 -148 82 -326 143 -446 l30 -60 138 -72 c76 -40 157
-84 181 -97 l42 -25 0 199 0 198 -120 78 c-117 76 -276 175 -372 230 l-48 28
6 -33z"/>
<path d="M3105 2761 c-188 -114 -402 -256 -532 -353 l-93 -68 0 -48 c0 -63
-30 -181 -74 -289 -32 -78 -33 -84 -13 -70 104 67 543 312 658 368 41 19 52
31 82 93 52 102 85 195 113 316 35 150 35 150 27 150 -5 -1 -80 -45 -168 -99z
m115 -28 c-19 -90 -57 -199 -102 -295 l-41 -88 -156 -81 c-161 -84 -262 -140
-389 -216 -41 -25 -76 -43 -78 -41 -2 3 7 39 21 81 13 42 29 110 34 153 6 42
13 80 16 84 20 32 691 476 703 465 2 -2 -2 -30 -8 -62z"/>
<path d="M283 2559 c56 -93 152 -221 229 -303 135 -145 204 -188 503 -320 72
-31 150 -66 174 -77 24 -11 45 -19 46 -17 2 2 -16 38 -40 80 -73 129 -135 315
-135 405 0 29 -6 36 -67 71 -231 134 -391 186 -622 199 l-114 6 26 -44z"/>
<path d="M3920 2559 c-213 -16 -420 -86 -607 -205 -43 -27 -53 -39 -53 -61 -1
-97 -68 -296 -141 -416 -21 -36 -39 -68 -39 -71 0 -3 19 3 43 14 23 10 98 44
167 74 228 99 314 145 399 212 97 78 193 187 291 331 83 120 89 134 64 132
-11 -1 -66 -5 -124 -10z m65 -56 c-145 -227 -306 -388 -475 -473 -97 -49 -327
-150 -340 -150 -6 0 5 31 24 68 41 81 72 180 89 282 l13 75 86 51 c174 102
392 169 567 173 l53 1 -17 -27z"/>
<path d="M1100 2313 c0 -71 69 -270 130 -373 75 -128 86 -138 210 -192 62 -27
114 -47 116 -45 2 2 7 84 10 183 l6 179 -28 16 c-16 8 -116 66 -223 128 -227
132 -221 129 -221 104z"/>
<path d="M2995 2171 c-121 -71 -287 -168 -369 -218 l-149 -90 -27 -84 c-30
-91 -89 -203 -152 -286 -21 -29 -36 -53 -32 -53 4 0 100 42 213 93 113 51 276
124 363 162 l156 69 51 76 c28 41 67 110 87 154 36 80 87 257 82 288 -2 13
-51 -11 -223 -111z m181 42 c-3 -10 -12 -45 -22 -78 -30 -107 -121 -281 -176
-336 -9 -9 -92 -49 -185 -89 -92 -40 -202 -89 -243 -108 -95 -44 -182 -82
-185 -82 -2 0 15 32 38 71 23 40 55 112 73 162 l31 91 204 121 c480 286 476
284 465 248z"/>
<path d="M429 1968 c63 -92 154 -194 234 -265 51 -45 89 -66 217 -119 179 -76
421 -166 427 -160 2 2 -10 26 -27 54 -42 68 -75 152 -101 256 -15 61 -27 90
-41 97 -11 6 -114 49 -230 95 -221 89 -323 113 -471 114 l-58 0 50 -72z"/>
<path d="M3687 1984 c-67 -12 -167 -49 -489 -181 -34 -14 -38 -21 -48 -70 -18
-86 -56 -189 -100 -271 -22 -41 -39 -76 -38 -77 7 -7 433 160 555 217 54 25
174 137 254 236 58 72 109 145 109 157 0 10 -167 3 -243 -11z m183 -23 c0 -14
-92 -127 -163 -200 -85 -87 -133 -124 -197 -150 -111 -46 -356 -144 -392 -157
l-37 -13 29 65 c16 36 41 106 55 156 13 50 29 96 33 100 11 11 342 146 419
172 82 27 253 45 253 27z"/>
<path d="M2309 1761 c-59 -36 -135 -84 -170 -105 -35 -22 -100 -63 -144 -91
-419 -270 -475 -308 -475 -323 0 -61 -90 -349 -154 -495 l-17 -39 23 7 c13 4
40 16 61 27 52 26 520 230 578 252 49 19 51 22 149 161 63 90 123 200 118 216
-2 4 -183 -81 -403 -190 -220 -109 -402 -197 -404 -195 -23 20 220 164 574
342 124 62 145 79 212 172 82 115 169 283 161 314 -2 7 -45 -14 -109 -53z m51
-16 c0 -23 -80 -157 -155 -259 -50 -68 -51 -69 -218 -152 -93 -47 -234 -121
-314 -165 -79 -44 -146 -79 -148 -77 -2 2 4 36 14 76 l17 74 130 85 c71 46
198 128 282 181 84 53 203 129 265 169 109 69 127 79 127 68z m-185 -507 c-20
-35 -59 -93 -86 -129 -44 -60 -56 -69 -126 -98 -43 -18 -181 -78 -306 -133
-125 -55 -230 -98 -232 -96 -3 3 8 40 23 84 l29 79 364 181 c200 100 366 180
368 178 2 -2 -13 -32 -34 -66z"/>
<path d="M1221 1728 c28 -99 68 -193 112 -260 46 -68 60 -80 121 -103 38 -14
50 -15 56 -5 9 14 30 174 33 248 l2 44 -154 69 c-213 95 -194 94 -170 7z"/>
<path d="M2900 1672 c-250 -113 -407 -187 -494 -232 -66 -34 -69 -37 -95 -100
-15 -36 -59 -115 -98 -177 l-72 -112 47 18 c278 110 532 208 623 242 122 45
137 57 195 154 54 88 122 295 98 295 -5 0 -97 -40 -204 -88z m170 35 c0 -2 -9
-32 -21 -68 -26 -80 -62 -151 -105 -210 -33 -45 -38 -48 -236 -122 -112 -42
-265 -101 -341 -131 l-138 -55 23 37 c13 20 45 81 73 135 l50 98 175 83 c96
45 202 95 235 110 33 15 107 49 165 76 101 46 120 54 120 47z"/>
<path d="M665 1503 c91 -157 195 -271 318 -347 102 -63 125 -72 306 -121 140
-37 150 -36 151 7 0 10 -16 43 -36 73 -37 58 -98 180 -106 213 -5 16 -48 33
-209 85 -216 70 -435 137 -445 137 -3 0 6 -21 21 -47z"/>
<path d="M3455 1449 c-365 -116 -418 -135 -425 -149 -4 -8 -26 -53 -48 -100
-23 -47 -66 -121 -96 -164 -31 -44 -54 -81 -52 -83 2 -2 91 19 197 48 167 44
205 58 276 100 142 86 227 172 320 324 42 67 49 85 35 84 -9 0 -102 -27 -207
-60z m146 -8 c-27 -49 -134 -182 -175 -217 -57 -48 -211 -143 -245 -151 -15
-3 -80 -20 -146 -38 -66 -18 -121 -31 -123 -30 -2 2 14 29 34 61 20 32 54 94
75 139 l38 81 258 83 c142 45 263 84 268 86 22 7 25 4 16 -14z"/>
<path d="M1340 1326 c0 -12 39 -92 72 -150 29 -48 43 -65 48 -55 15 28 38 149
29 155 -13 8 -149 53 -149 50z"/>
<path d="M2705 1196 c-137 -50 -305 -114 -371 -140 -121 -48 -122 -49 -134
-90 -18 -59 -55 -130 -113 -214 -51 -74 -55 -93 -18 -72 37 19 300 115 494
179 l187 63 59 75 c91 117 187 294 159 292 -7 0 -125 -42 -263 -93z m171 -43
c-26 -43 -70 -107 -99 -142 l-52 -63 -190 -63 c-104 -35 -239 -81 -299 -104
-60 -23 -110 -41 -112 -41 -2 0 10 22 26 49 17 26 46 82 65 123 l34 75 183 71
c234 91 482 181 487 176 2 -2 -17 -39 -43 -81z"/>
<path d="M2005 919 c-138 -60 -333 -149 -532 -245 -56 -27 -105 -56 -108 -64
-21 -58 -341 -362 -500 -475 -58 -42 -79 -65 -57 -65 4 0 70 37 147 81 131 76
542 285 630 321 22 10 114 50 205 91 l165 74 57 74 c32 41 58 77 58 81 0 3 18
37 39 75 42 73 57 113 44 113 -4 0 -71 -28 -148 -61z m67 -54 c-17 -30 -54
-88 -83 -128 l-52 -73 -146 -64 c-174 -75 -485 -225 -630 -304 -58 -31 -106
-55 -107 -53 -2 1 41 41 94 87 53 47 133 128 179 181 l84 96 152 74 c166 80
517 238 530 239 5 0 -5 -25 -21 -55z"/>
<path d="M871 961 l-44 -6 70 -52 c39 -29 118 -92 175 -140 56 -47 123 -99
147 -114 l44 -28 16 22 c31 41 137 294 128 304 -19 19 -423 29 -536 14z"/>
<path d="M3100 934 c-70 -6 -213 -25 -237 -31 -12 -2 -48 -39 -79 -81 -32 -42
-94 -117 -138 -166 l-80 -89 240 8 c284 8 271 4 441 152 59 52 138 115 176
141 45 30 63 48 55 53 -15 8 -313 19 -378 13z m290 -40 c0 -3 -12 -16 -27 -28
-15 -11 -75 -62 -133 -111 -172 -147 -151 -139 -384 -143 l-199 -4 53 59 c29
32 78 91 108 130 58 78 54 76 182 92 77 10 400 14 400 5z"/>
<path d="M2670 864 c-157 -40 -336 -102 -504 -175 -87 -38 -161 -71 -164 -74
-15 -14 18 -18 323 -34 l180 -9 68 66 c64 63 207 232 207 246 0 8 -2 8 -110
-20z m-8 -81 c-22 -26 -70 -77 -105 -112 l-65 -64 -174 7 c-95 5 -179 11 -186
15 -17 10 246 115 408 164 124 37 153 45 159 41 2 -2 -15 -25 -37 -51z"/>
<path d="M2843 556 c-161 -11 -195 -18 -151 -31 81 -24 580 -279 755 -386 43
-26 64 -35 69 -27 4 7 -3 18 -17 27 -115 76 -330 261 -420 362 -34 38 -64 68
-68 67 -3 0 -79 -6 -168 -12z"/>
</g>
</svg>
